<svg width="30" height="30" viewBox="0 0 30 30" fill="none" xmlns="http://www.w3.org/2000/svg">
<path opacity="0.4" d="M21.2956 0H8.73435C3.25662 0 0 3.25662 0 8.71936V21.2806C0 26.7434 3.25662 30 8.71935 30H21.2806C26.7433 30 29.9999 26.7434 29.9999 21.2806V8.71936C30.015 3.25662 26.7583 0 21.2956 0Z" fill="#80AFEF"/>
<path d="M14 10L14.5 9L15.5 8.5L14.5 8L14 7L13.5 8L12.5 8.5L13.5 9L14 10ZM9.5 12L10.3331 10.3334L12 9.5L10.3331 8.66656L9.5 7L8.66688 8.66656L7 9.5L8.66688 10.3334L9.5 12ZM20.5 16L19.6669 17.6666L18 18.5L19.6669 19.3334L20.5 21L21.3331 19.3334L23 18.5L21.3331 17.6666L20.5 16ZM22.7069 9.94469L20.0553 7.29313C19.8603 7.0975 19.6044 7 19.3484 7C19.0925 7 18.8366 7.0975 18.6412 7.29313L7.29313 18.6413C6.9025 19.0319 6.9025 19.665 7.29313 20.0553L9.94469 22.7069C10.14 22.9022 10.3959 22.9997 10.6516 22.9997C10.9075 22.9997 11.1634 22.9022 11.3587 22.7069L22.7069 11.3584C23.0975 10.9684 23.0975 10.335 22.7069 9.94469ZM18.2328 13.3581L16.6419 11.7672L19.3481 9.06094L20.9391 10.6519L18.2328 13.3581Z" fill="#005EDE"/>
</svg>
