<svg width="1085" height="1526" viewBox="0 0 1085 1526" fill="none" xmlns="http://www.w3.org/2000/svg">
<path d="M728.25 364.125C728.25 565.226 565.226 728.25 364.125 728.25C163.024 728.25 0 565.226 0 364.125C0 163.024 163.024 0 364.125 0C565.226 0 728.25 163.024 728.25 364.125ZM43.4235 364.125C43.4235 541.244 187.006 684.826 364.125 684.826C541.244 684.826 684.826 541.244 684.826 364.125C684.826 187.006 541.244 43.4235 364.125 43.4235C187.006 43.4235 43.4235 187.006 43.4235 364.125Z" fill="#F8F8F8"/>
<path d="M1084.62 824C1084.62 964.28 970.905 1078 830.625 1078C690.345 1078 576.625 964.28 576.625 824C576.625 683.72 690.345 570 830.625 570C970.905 570 1084.62 683.72 1084.62 824ZM613.913 824C613.913 943.687 710.938 1040.71 830.625 1040.71C950.312 1040.71 1047.34 943.687 1047.34 824C1047.34 704.313 950.312 607.288 830.625 607.288C710.938 607.288 613.913 704.313 613.913 824Z" fill="#F8F8F8"/>
<path d="M725.625 1272C725.625 1412.28 611.905 1526 471.625 1526C331.345 1526 217.625 1412.28 217.625 1272C217.625 1131.72 331.345 1018 471.625 1018C611.905 1018 725.625 1131.72 725.625 1272ZM254.913 1272C254.913 1391.69 351.938 1488.71 471.625 1488.71C591.312 1488.71 688.337 1391.69 688.337 1272C688.337 1152.31 591.312 1055.29 471.625 1055.29C351.938 1055.29 254.913 1152.31 254.913 1272Z" fill="#F8F8F8"/>
</svg>
