<svg width="25" height="25" viewBox="0 0 25 25" fill="none" xmlns="http://www.w3.org/2000/svg">
<path opacity="0.4" d="M17.3906 8.25C17.2006 8.25 17.0106 8.18 16.8606 8.03C16.5706 7.74 16.5706 7.26 16.8606 6.97L18.9106 4.92C17.1506 3.42 14.8806 2.5 12.3906 2.5C6.87063 2.5 2.39062 6.98 2.39062 12.5C2.39062 18.02 6.87063 22.5 12.3906 22.5C17.9106 22.5 22.3906 18.02 22.3906 12.5C22.3906 10.01 21.4706 7.74 19.9706 5.98L17.9206 8.03C17.7706 8.18 17.5806 8.25 17.3906 8.25Z" fill="#FFC700"/>
<path d="M23.0828 2.20828C23.0028 2.02828 22.8628 1.87829 22.6728 1.79829C22.5828 1.75829 22.4828 1.73828 22.3828 1.73828H18.3828C17.9728 1.73828 17.6328 2.07828 17.6328 2.48828C17.6328 2.89828 17.9728 3.23828 18.3828 3.23828H20.5728L18.9028 4.90829C19.2828 5.23829 19.6328 5.58828 19.9628 5.96828L21.6328 4.29829V6.49828C21.6328 6.90828 21.9728 7.24828 22.3828 7.24828C22.7928 7.24828 23.1328 6.90828 23.1328 6.49828V2.49828C23.1428 2.39828 23.1228 2.30828 23.0828 2.20828Z" fill="#FFC700"/>
<path d="M15.4602 16.5V13.74H16.2522V12.876H15.4602V12.072H16.2522V11.208H15.4602V8.496H13.7562V11.208H12.0522L10.0482 8.496H8.2962V11.208H7.5042V12.072H8.2962V12.876H7.5042V13.74H8.2962V16.5H10.0002V13.74H11.7882L13.8162 16.5H15.4602ZM10.0002 12.072H10.5762L11.1642 12.876H10.0002V12.072ZM12.6882 12.072H13.7562V12.876H13.2762L12.6882 12.072Z" fill="#FFC700"/>
</svg>
