<svg width="154" height="35" viewBox="0 0 154 35" fill="none" xmlns="http://www.w3.org/2000/svg">
<g clip-path="url(#clip0_10834_47467)">
<path fill-rule="evenodd" clip-rule="evenodd" d="M26.3731 4.08616C24.7418 1.99888 22.4787 0.570128 19.9733 0.135606C19.4893 0.0548248 18.9873 0.00556784 18.4586 0.00117261C17.598 -0.0123162 16.7196 0.0907444 15.8503 0.301261C13.5601 0.852029 11.324 2.13756 9.65662 4.01887C7.97609 5.91352 6.86013 8.40849 6.82859 11.3601C6.81979 12.3678 6.93626 13.4294 7.20057 14.5359C8.61679 20.4169 20.1928 31.3369 24.9746 34.8125C25.5302 35.1664 26.2652 35.0051 26.6192 34.4498L28.4882 31.5248C28.8423 30.9695 28.6808 30.2351 28.1252 29.881C27.5694 29.5271 26.8345 29.6885 26.4804 30.2439L25.3197 32.0623C20.2689 28.0446 10.9024 19.7494 9.51316 13.9803C9.29358 13.0709 9.19941 12.1976 9.20851 11.3735C9.23535 9.04883 10.1138 7.08689 11.4404 5.591C12.7805 4.08601 14.5684 3.05131 16.4015 2.6124C17.0827 2.44674 17.7728 2.36596 18.4408 2.3749C18.8037 2.37945 19.1848 2.41522 19.5701 2.48251C21.4793 2.81837 23.2272 3.92475 24.4908 5.54614C25.7816 7.1989 26.5704 9.38014 26.5434 11.8347C26.5388 12.4215 26.4807 13.0396 26.3685 13.6846C25.5484 18.3876 21.2908 22.4411 19.0189 24.3135L20.6591 26.0513C23.2044 23.9237 27.7937 19.4314 28.7214 14.0877C28.8514 13.344 28.9186 12.6006 28.9275 11.8571C28.9633 8.84271 27.9773 6.14177 26.3729 4.08586L26.3731 4.08616Z" fill="#005EDE"/>
<path fill-rule="evenodd" clip-rule="evenodd" d="M13.2431 31.5339C13.0281 31.3055 12.8757 31.1576 12.7771 31.0591C12.916 30.6694 13.0684 30.0559 13.0684 28.9853C13.0684 28.7032 13.046 27.4714 13.0192 25.756C12.5484 25.3125 11.4326 23.8882 10.599 23.082C10.6348 25.326 10.6797 28.3583 10.6797 28.9809C10.6797 29.9125 10.5408 30.2485 10.4601 30.4456C10.2721 30.898 10.1688 31.1577 10.393 31.74C10.5498 32.1477 10.8411 32.4568 11.5223 33.1733C11.8899 33.5675 12.3828 34.0869 12.8667 34.611C13.3105 35.0994 14.0634 35.1307 14.5473 34.6873C15.0357 34.2438 15.0673 33.4913 14.6236 33.0077C13.9378 32.2552 13.5434 31.8431 13.2431 31.5341V31.5339Z" fill="#005EDE"/>
<path fill-rule="evenodd" clip-rule="evenodd" d="M8.85107 14.3834C8.75705 13.734 8.15199 13.2816 7.49779 13.3757C7.47777 13.3757 2.11985 14.1379 1.12157 18.9203C0.452812 19.287 0 19.9973 0 20.8109C0 22.0023 0.963705 22.9699 2.15579 22.9655C3.34787 22.9655 4.31142 22.0023 4.31142 20.8109C4.31142 20.1455 4.01086 19.5514 3.53788 19.1565C4.39756 16.2245 7.83141 15.7362 7.84308 15.7362C8.49288 15.6421 8.94554 15.0374 8.85137 14.3835L8.85107 14.3834Z" fill="#005EDE"/>
<path fill-rule="evenodd" clip-rule="evenodd" d="M35.8961 13.9319C35.8961 12.7405 34.9324 11.7773 33.7403 11.7773C32.5528 11.7773 31.5845 12.7449 31.5845 13.9319C31.5845 14.4969 31.8014 15.0109 32.1565 15.3948C30.7549 19.0843 26.9222 18.1327 26.9102 18.1289C26.2694 17.9766 25.6239 18.3797 25.4761 19.0202C25.3282 19.6607 25.7272 20.3058 26.3679 20.4534C26.3885 20.4576 32.5939 21.9975 34.5107 15.9449C35.3212 15.6356 35.8959 14.8517 35.8959 13.9319H35.8961Z" fill="#005EDE"/>
<path fill-rule="evenodd" clip-rule="evenodd" d="M14.8835 13.5496C14.8836 13.5496 14.8836 13.5498 14.8838 13.5499L14.8883 13.5558C14.8932 13.5618 14.901 13.5716 14.9123 13.5852C14.9347 13.6125 14.9699 13.6542 15.0169 13.7071C15.1111 13.8129 15.2515 13.962 15.4312 14.1283C15.7947 14.4649 16.2971 14.8518 16.882 15.1046C17.4605 15.3547 18.097 15.4644 18.766 15.2911C19.4352 15.1175 20.2227 14.6384 21.0618 13.5508C21.2885 13.2571 21.7107 13.2024 22.0046 13.429C22.2986 13.6554 22.3532 14.0774 22.1266 14.3712C21.155 15.6309 20.1319 16.3251 19.1037 16.5916C18.0753 16.8582 17.1277 16.6746 16.3483 16.3379C15.5753 16.0038 14.9459 15.5108 14.5174 15.114C14.301 14.9135 14.1302 14.7326 14.0123 14.6002C13.9533 14.5339 13.907 14.4791 13.8747 14.4399C13.8585 14.4203 13.8458 14.4044 13.8365 14.3929C13.8318 14.387 13.8283 14.3825 13.8254 14.3788L13.8218 14.3741L13.8204 14.3725L13.82 14.3718C13.8198 14.3715 13.8195 14.3712 14.3519 13.961L13.8195 14.3712C13.593 14.0774 13.6474 13.6554 13.9416 13.429C14.2352 13.2026 14.6566 13.2567 14.8835 13.5498V13.5496Z" fill="#005EDE"/>
<path fill-rule="evenodd" clip-rule="evenodd" d="M15.3807 6.64844C16.3442 6.64844 17.1284 7.43215 17.1284 8.39516C17.1284 9.35833 16.3442 10.142 15.3807 10.142C14.417 10.142 13.6328 9.35833 13.6328 8.39516C13.6328 7.42776 14.4127 6.64844 15.3807 6.64844Z" fill="#005EDE"/>
<path fill-rule="evenodd" clip-rule="evenodd" d="M21.1307 6.64844C22.0944 6.64844 22.8785 7.43215 22.8785 8.39516C22.8785 9.35833 22.0944 10.142 21.1307 10.142C20.1671 10.142 19.3828 9.35833 19.3828 8.39516C19.3828 7.42776 20.1671 6.64844 21.1307 6.64844Z" fill="#005EDE"/>
<path d="M49.3153 29.8112L54.5349 17.0209H51.5673L47.8316 26.6069L44.0956 17.0209H41.1016L46.3213 29.8112H49.3154H49.3153ZM61.3178 35.0015C65.0008 35.0015 67.7034 33.0153 67.7034 29.1757V17.0209H64.9214V25.5742C64.2855 26.4217 63.0666 27.2424 61.6624 27.2424C60.0727 27.2424 59.0659 26.6069 59.0659 24.6209V17.0209H56.2838V25.6536C56.2838 28.2488 57.6617 29.7053 60.4172 29.7053C62.4309 29.7053 64.0207 28.6991 64.9215 27.6927V29.1757C64.9215 31.4531 63.5702 32.7242 61.318 32.7242C59.8608 32.7242 58.377 32.2475 57.4497 31.0823L56.1513 33.0948C57.5557 34.3924 59.1719 35.0015 61.318 35.0015H61.3178ZM74.0889 25.9714V20.8872C74.7248 19.9339 76.0762 19.166 77.4008 19.166C79.6 19.166 81.0044 20.9401 81.0044 23.403C81.0044 25.8922 79.6 27.6665 77.4008 27.6665C76.0761 27.6665 74.7248 26.9249 74.0889 25.9716V25.9714ZM74.0889 29.8112V28.0634C75.0692 29.3346 76.5532 30.1289 78.1958 30.1289C81.4813 30.1289 83.8925 27.6397 83.8925 23.4028C83.8925 19.2717 81.5077 16.7031 78.1958 16.7031C76.6061 16.7031 75.1222 17.4182 74.0889 18.7951V12.1484H71.3068V29.8112H74.0889ZM92.6363 30.1289C94.6499 30.1289 96.5312 29.4669 97.8294 28.2488L96.5576 26.4216C95.6303 27.3482 94.173 27.8515 92.9011 27.8515C90.4899 27.8515 89.0593 26.2362 88.8473 24.3296H98.7038V23.6411C98.7038 19.6159 96.2661 16.703 92.4242 16.703C88.6353 16.703 85.9326 19.6954 85.9326 23.4027C85.9326 27.4543 88.7677 30.1287 92.6362 30.1287L92.6363 30.1289ZM96.0277 22.3436H88.8209C88.9269 20.8078 90.0397 18.9804 92.3979 18.9804C94.9151 18.9804 95.9484 20.8342 96.0279 22.3436H96.0277ZM107.288 30.1289C109.806 30.1289 111.289 29.0433 112.19 27.8515L110.362 26.1303C109.646 27.1365 108.666 27.6662 107.421 27.6662C105.116 27.6662 103.552 25.8919 103.552 23.4027C103.552 20.9134 105.116 19.1657 107.421 19.1657C108.666 19.1657 109.646 19.6423 110.362 20.6485L112.19 18.9801C111.289 17.7621 109.805 16.7028 107.288 16.7028C103.42 16.7028 100.691 19.5364 100.691 23.4025C100.691 27.2686 103.42 30.1286 107.288 30.1286V30.1289ZM126.445 29.8112V17.0209H123.663V18.7951C122.63 17.418 121.172 16.7031 119.556 16.7031C116.271 16.7031 113.886 19.2719 113.886 23.4028C113.886 27.6398 116.297 30.1289 119.556 30.1289C121.225 30.1289 122.683 29.3344 123.663 28.0634V29.8112H126.445ZM120.377 27.6663C118.152 27.6663 116.747 25.892 116.747 23.4028C116.747 20.94 118.152 19.1658 120.377 19.1658C121.676 19.1658 123.053 19.9338 123.663 20.8871V25.9449C123.053 26.8981 121.676 27.6662 120.377 27.6662V27.6663ZM134.447 30.129C137.891 30.129 139.772 28.4078 139.772 26.1304C139.772 21.0461 132.036 22.7409 132.036 20.49C132.036 19.5897 132.936 18.9012 134.394 18.9012C136.01 18.9012 137.414 19.5897 138.182 20.4371L139.348 18.4774C138.209 17.4712 136.566 16.7031 134.394 16.7031C131.161 16.7031 129.359 18.4774 129.359 20.5694C129.359 25.4948 137.096 23.6941 137.096 26.2097C137.096 27.2161 136.222 27.9046 134.553 27.9046C132.91 27.9046 131.135 27.0571 130.234 26.1303L128.962 28.1165C130.287 29.414 132.248 30.1289 134.447 30.1289V30.129ZM154.001 29.8114V20.7549C154.001 18.1334 152.623 16.7033 149.867 16.7033C147.854 16.7033 146.211 17.736 145.363 18.7423V12.1486H142.581V29.8114H145.363V20.8608C145.999 20.0133 147.218 19.1661 148.648 19.1661C150.212 19.1661 151.219 19.7487 151.219 21.7611V29.8114H154.001Z" fill="#005EDE"/>
</g>
<defs>
<clipPath id="clip0_10834_47467">
<rect width="154" height="35" fill="white"/>
</clipPath>
</defs>
</svg>
