<svg width="1079" height="729" viewBox="0 0 1079 729" fill="none" xmlns="http://www.w3.org/2000/svg">
<path d="M1078.62 364.125C1078.62 565.226 915.601 728.25 714.5 728.25C513.399 728.25 350.375 565.226 350.375 364.125C350.375 163.024 513.399 0 714.5 0C915.601 0 1078.62 163.024 1078.62 364.125ZM393.799 364.125C393.799 541.244 537.381 684.826 714.5 684.826C891.619 684.826 1035.2 541.244 1035.2 364.125C1035.2 187.006 891.619 43.4235 714.5 43.4235C537.381 43.4235 393.799 187.006 393.799 364.125Z" fill="#EFF5FD"/>
<path d="M508 448C508 588.28 394.28 702 254 702C113.72 702 0 588.28 0 448C0 307.72 113.72 194 254 194C394.28 194 508 307.72 508 448ZM37.2883 448C37.2883 567.687 134.313 664.712 254 664.712C373.687 664.712 470.712 567.687 470.712 448C470.712 328.313 373.687 231.288 254 231.288C134.313 231.288 37.2883 328.313 37.2883 448Z" fill="#EFF5FD"/>
</svg>
