<svg width="30" height="30" viewBox="0 0 30 30" fill="none" xmlns="http://www.w3.org/2000/svg">
<path opacity="0.4" d="M21.2956 0H8.73435C3.25662 0 0 3.25662 0 8.71936V21.2806C0 26.7434 3.25662 30 8.71935 30H21.2806C26.7433 30 29.9999 26.7434 29.9999 21.2806V8.71936C30.015 3.25662 26.7583 0 21.2956 0Z" fill="#80AFEF"/>
<path d="M22.9994 22.2611H13.9294C13.4794 22.2611 13.1094 21.8911 13.1094 21.4411C13.1094 20.9911 13.4794 20.6211 13.9294 20.6211H22.9994C23.4494 20.6211 23.8194 20.9911 23.8194 21.4411C23.8194 21.9011 23.4494 22.2611 22.9994 22.2611Z" fill="#005EDE"/>
<path d="M22.9994 15.9681H13.9294C13.4794 15.9681 13.1094 15.5981 13.1094 15.1481C13.1094 14.6981 13.4794 14.3281 13.9294 14.3281H22.9994C23.4494 14.3281 23.8194 14.6981 23.8194 15.1481C23.8194 15.5981 23.4494 15.9681 22.9994 15.9681Z" fill="#005EDE"/>
<path d="M22.9994 9.67125H13.9294C13.4794 9.67125 13.1094 9.30125 13.1094 8.85125C13.1094 8.40125 13.4794 8.03125 13.9294 8.03125H22.9994C23.4494 8.03125 23.8194 8.40125 23.8194 8.85125C23.8194 9.30125 23.4494 9.67125 22.9994 9.67125Z" fill="#005EDE"/>
<path opacity="0.4" d="M7.90969 11.0319C7.68969 11.0319 7.47969 10.9419 7.32969 10.7919L6.41969 9.88188C6.09969 9.56188 6.09969 9.04187 6.41969 8.72187C6.73969 8.40187 7.25969 8.40187 7.57969 8.72187L7.90969 9.05188L10.0497 6.91187C10.3697 6.59188 10.8897 6.59188 11.2097 6.91187C11.5297 7.23188 11.5297 7.75188 11.2097 8.07188L8.48969 10.7919C8.32969 10.9419 8.12969 11.0319 7.90969 11.0319Z" fill="#005EDE"/>
<path opacity="0.4" d="M7.90969 17.3287C7.69969 17.3287 7.48969 17.2487 7.32969 17.0887L6.41969 16.1788C6.09969 15.8588 6.09969 15.3388 6.41969 15.0188C6.73969 14.6988 7.25969 14.6988 7.57969 15.0188L7.90969 15.3488L10.0497 13.2087C10.3697 12.8888 10.8897 12.8888 11.2097 13.2087C11.5297 13.5288 11.5297 14.0487 11.2097 14.3687L8.48969 17.0887C8.32969 17.2487 8.11969 17.3287 7.90969 17.3287Z" fill="#005EDE"/>
<path opacity="0.4" d="M7.90969 23.3288C7.69969 23.3288 7.48969 23.2488 7.32969 23.0888L6.41969 22.1788C6.09969 21.8588 6.09969 21.3388 6.41969 21.0188C6.73969 20.6988 7.25969 20.6988 7.57969 21.0188L7.90969 21.3488L10.0497 19.2087C10.3697 18.8888 10.8897 18.8888 11.2097 19.2087C11.5297 19.5288 11.5297 20.0488 11.2097 20.3688L8.48969 23.0888C8.32969 23.2488 8.11969 23.3288 7.90969 23.3288Z" fill="#005EDE"/>
</svg>
