<svg width="20" height="16" viewBox="0 0 20 16" fill="none" xmlns="http://www.w3.org/2000/svg">
<path d="M19.7523 1.96017C19.0351 2.26954 18.2547 2.4922 17.4508 2.57892C18.2854 2.08306 18.9104 1.2997 19.2086 0.375791C18.4254 0.841704 17.5674 1.16841 16.6726 1.34142C16.2987 0.941635 15.8464 0.62315 15.344 0.405809C14.8415 0.188467 14.2997 0.0769255 13.7523 0.0781347C11.5375 0.0781347 9.75624 1.87345 9.75624 4.07658C9.75624 4.38595 9.79374 4.69533 9.85468 4.99298C6.53827 4.81955 3.58047 3.23517 1.61406 0.809385C1.25576 1.42138 1.068 2.1182 1.07031 2.82736C1.07031 4.21486 1.77578 5.4383 2.85156 6.15783C2.21759 6.13286 1.59846 5.9586 1.04453 5.64923V5.69845C1.04453 7.64142 2.41797 9.25158 4.24843 9.62189C3.90474 9.71117 3.55118 9.75684 3.19609 9.75783C2.93593 9.75783 2.68984 9.73205 2.4414 9.69689C2.94765 11.2813 4.42187 12.4321 6.17734 12.4696C4.8039 13.5453 3.08359 14.1781 1.21562 14.1781C0.880468 14.1781 0.571093 14.1664 0.25 14.1289C2.02187 15.2656 4.12421 15.9219 6.38827 15.9219C13.7383 15.9219 17.7601 9.83283 17.7601 4.54767C17.7601 4.37423 17.7601 4.20079 17.7484 4.02736C18.5265 3.45783 19.2086 2.75236 19.7523 1.96017Z" fill="#005EDE"/>
</svg>
